<svg xmlns="http://www.w3.org/2000/svg" width="500" height="500" style="width:100%;height:100%;transform:translate3d(0,0,0);content-visibility:visible" viewBox="0 0 500 500"><defs><clipPath id="c"><path d="M0 0h500v500H0z"/></clipPath><clipPath id="b"><path d="M0 0h500v500H0z"/></clipPath><filter id="e" width="300%" height="300%" x="-100%" y="-100%"><feGaussianBlur result="filter_result_0" stdDeviation="52.5 52.5"/></filter><mask id="d" mask-type="alpha"><use xmlns:ns1="http://www.w3.org/1999/xlink" ns1:href="#a"/></mask><g id="a" fill-opacity="0" stroke-linecap="round" stroke-linejoin="round" stroke-width="12" clip-path="url(#b)" style="display:block"><path stroke="#08A88A" d="M252.229 227.531h15.352c7.363 0 13.396 5.459 13.396 12.132 0 3.329-1.512 6.36-3.94 8.562-2.428 2.195-5.778 3.562-9.456 3.562h-15.352m-.002-24.255v45.256m-18.728 0-18.93-45.576-20.23 45.576m34.502-11.214h-29.524m102.343 11.215v-45.258" style="display:block"/><path stroke="#121331" d="m127.173-.01 31.488 21.577c-2.592 19.404-8.692 37.702-17.593 54.247l-38.198-1.067 12.79 35.967a160.012 160.012 0 0 1-46.069 33.528l-30.288-23.311-10.807 36.653c-9.244 1.677-18.775 2.535-28.496 2.535s-19.252-.858-28.496-2.535l-10.807-36.653-30.288 23.311a160.012 160.012 0 0 1-46.069-33.528l12.79-35.967-38.198 1.067c-8.901-16.545-15.001-34.843-17.593-54.247L-127.173-.01l-31.488-21.576a158.641 158.641 0 0 1 17.574-54.228l38.217 1.068-12.809-35.987a161.164 161.164 0 0 1 46.108-33.528l30.268 23.312 10.788-36.635A161.338 161.338 0 0 1 0-160.119c9.74 0 19.271.876 28.515 2.535l10.788 36.635 30.268-23.312a161.164 161.164 0 0 1 46.108 33.528L102.87-74.746l38.217-1.068a158.641 158.641 0 0 1 17.574 54.228L127.173-.01z" style="display:block" transform="translate(250 250)"/><path stroke="#121331" d="M-91.162 0c0 50.348 40.814 91.162 91.162 91.162 50.348 0 91.162-40.814 91.162-91.162 0-50.348-40.814-91.162-91.162-91.162-50.348 0-91.162 40.814-91.162 91.162z" style="display:block" transform="translate(250 250)"/></g></defs><g clip-path="url(#c)"><g mask="url(#d)" style="display:block"><g filter="url(#e)" transform="rotate(-94 262.075 8.435) scale(2.4)"><path fill="#4BE1EC" d="M0-250c137.975 0 250 112.025 250 250S137.975 250 0 250-250 137.975-250 0-137.975-250 0-250z" class="design"/><path fill="#CB5EEE" d="M113.242-295.384c97.478 0 176.5 79.022 176.5 176.5s-79.022 176.5-176.5 176.5c-43.948 0-74.396-34.057-105.29-60.631-37.631-32.369-71.21-62.338-71.21-115.869 0-97.478 79.022-176.5 176.5-176.5z" class="design"/></g></g><path style="display:none"/></g></svg>